<svg width="48" height="48" viewBox="0 0 48 48" fill="none" xmlns="http://www.w3.org/2000/svg">
<rect width="48" height="48" fill="#201D1D"/>
<rect width="48" height="48" rx="11" fill="#F9F0F0"/>
<path d="M10.935 14.0002C11.0598 14.0005 11.1845 14.0006 11.3093 14.0007C12.4936 14.0022 13.6661 14.024 14.843 14.1652C14.9382 14.1756 14.9382 14.1756 15.0353 14.1862C17.8319 14.4914 21.1769 15.0515 23.2625 17.0497C23.4694 16.935 23.6733 16.8175 23.8752 16.6944C25.896 15.473 28.3463 15.0159 30.6707 14.7247C30.7298 14.7171 30.7298 14.7171 30.7901 14.7094C32.1191 14.5419 33.4504 14.4942 34.7888 14.4975C34.9015 14.4978 35.0143 14.4979 35.127 14.498C36.3002 14.4993 37.4638 14.5343 38.6306 14.6625C38.6951 14.6694 38.7596 14.6763 38.8261 14.6834C39.7696 14.7862 39.7696 14.7862 40 14.8615C39.9702 15.3697 39.8998 15.8666 39.8193 16.369C39.8073 16.4451 39.7953 16.5212 39.7834 16.5973C39.7544 16.7813 39.7251 16.9652 39.6957 17.1491C39.3751 17.1272 39.0553 17.1034 38.7362 17.0654C38 16.9778 37.2663 16.9256 36.5257 16.8911C36.4815 16.889 36.4374 16.8869 36.3919 16.8847C35.7514 16.8545 35.1127 16.8446 34.4715 16.8507C34.4095 16.8513 34.3475 16.8518 34.2836 16.8524C32.0839 16.8819 29.8507 17.1264 27.7258 17.6962C27.6507 17.7163 27.6507 17.7163 27.574 17.7368C26.9046 17.9189 26.2697 18.1412 25.6463 18.4422C25.6151 18.457 25.5838 18.4719 25.5516 18.4872C25.0508 18.7283 24.4879 19.0286 24.2261 19.5363C24.1896 19.7139 24.1895 19.8878 24.1903 20.0686C24.1891 20.147 24.1891 20.147 24.1879 20.2271C24.1857 20.3988 24.1853 20.5705 24.1849 20.7423C24.1838 20.8615 24.1825 20.9807 24.1812 21.1C24.1774 21.4739 24.1763 21.8478 24.1754 22.2218C24.175 22.3467 24.1746 22.4715 24.1741 22.5964C24.1718 23.317 24.1724 24.0376 24.1754 24.7582C24.2228 24.7291 24.2702 24.7 24.319 24.6701C24.7291 24.4216 25.1369 24.2058 25.5861 24.0308C25.6444 24.0079 25.7027 23.985 25.7628 23.9614C27.4129 23.3305 29.162 23.0946 30.9243 23.1015C30.9741 23.1016 31.0239 23.1017 31.0751 23.1018C32.57 23.1069 34.0087 23.2978 35.4447 23.72C35.4848 23.7314 35.5249 23.7428 35.5662 23.7545C35.6751 23.7888 35.6751 23.7888 35.841 23.863C35.9083 24.0176 35.8876 24.1135 35.8276 24.2671C35.8124 24.3069 35.7971 24.3467 35.7814 24.3877C35.7645 24.4302 35.7476 24.4727 35.7302 24.5165C35.7133 24.5604 35.6963 24.6042 35.6788 24.6494C35.6246 24.7895 35.5695 24.9292 35.5145 25.069C35.4775 25.1639 35.4406 25.2588 35.4038 25.3538C35.3134 25.5865 35.2223 25.8189 35.1309 26.0512C34.8554 26.0201 34.6087 25.9716 34.3447 25.8865C31.8672 25.1393 28.7248 25.237 26.3564 26.2999C26.3229 26.3149 26.2893 26.3299 26.2548 26.3453C25.7959 26.5532 25.3843 26.786 24.9869 27.0956C24.9419 27.1275 24.9419 27.1275 24.896 27.1601C24.4976 27.4533 24.3216 27.8879 24.1754 28.3389C24.1419 28.3389 24.1085 28.3389 24.074 28.3389C24.0741 28.3749 24.0742 28.411 24.0743 28.4481C24.0757 28.9111 24.0766 29.3741 24.0771 29.8371C24.0772 29.8741 24.0772 29.9111 24.0773 29.9493C24.0786 31.2697 24.0622 32.5889 24.0233 33.9089C24.0783 33.8795 24.1333 33.8501 24.1899 33.8198C24.6214 33.5912 25.0499 33.3783 25.51 33.2095C25.5656 33.189 25.6213 33.1684 25.6786 33.1472C27.4654 32.5012 29.3392 32.1769 31.2255 31.9693C31.2804 31.9631 31.2804 31.9631 31.3365 31.9567C33.7263 31.6867 36.2413 31.7067 38.6306 31.9693C38.6951 31.9762 38.7596 31.9831 38.8261 31.9902C39.7696 32.093 39.7696 32.093 40 32.1683C39.9702 32.6765 39.8998 33.1734 39.8193 33.6758C39.8073 33.7519 39.7953 33.828 39.7834 33.9041C39.7544 34.0881 39.7251 34.272 39.6957 34.4559C39.3751 34.434 39.0553 34.4102 38.7362 34.3722C38 34.2846 37.2663 34.2324 36.5257 34.1979C36.4815 34.1958 36.4374 34.1937 36.3919 34.1915C35.7514 34.1613 35.1127 34.1514 34.4715 34.1575C34.4095 34.1581 34.3475 34.1586 34.2836 34.1592C32.0839 34.1887 29.8507 34.4332 27.7258 35.003C27.6757 35.0164 27.6256 35.0298 27.574 35.0436C26.9046 35.2257 26.2697 35.448 25.6463 35.749C25.5994 35.7713 25.5994 35.7713 25.5516 35.794C24.8985 36.0965 24.8985 36.0965 24.4217 36.6025C24.2492 36.9173 24.2492 36.9173 24.053 36.9845C23.902 37.0002 23.757 37.002 23.6052 36.9985C23.5503 36.9987 23.4954 36.9989 23.4389 36.9991C23.323 36.9989 23.2071 36.9977 23.0913 36.9954C22.9146 36.9923 22.7384 36.9934 22.5617 36.995C22.4488 36.9943 22.336 36.9934 22.2231 36.9923C22.1707 36.9927 22.1183 36.9931 22.0642 36.9935C21.7284 36.9839 21.5551 36.9173 21.3196 36.6796C21.1871 36.5483 21.0342 36.4721 20.8659 36.3924C20.8141 36.3676 20.8141 36.3676 20.7611 36.3423C18.7765 35.4315 16.3139 35.3796 14.1641 35.385C14.0519 35.3853 13.9396 35.3854 13.8274 35.3856C11.9139 35.3888 9.99756 35.4966 8.11266 35.8414C8.05416 35.8521 8.05416 35.8521 7.99447 35.863C7.92026 35.8767 7.84613 35.8909 7.77211 35.9055C7.56358 35.9445 7.45089 35.9405 7.235 35.8982C7.13457 35.4058 7.03415 34.9135 6.93068 34.4062C6.66288 34.4226 6.39508 34.439 6.11916 34.4559C6.00307 33.9762 5.91628 33.5079 5.91628 33.0137C5.61501 33.0137 5.31373 33.0137 5.00332 33.0137C4.98822 29.5407 5.02726 26.0683 5.06689 22.5955C5.07371 21.9975 5.08026 21.3994 5.08665 20.8013C5.09416 20.0973 5.10184 19.3934 5.10978 18.6894C5.11062 18.6147 5.11146 18.54 5.1123 18.4653C5.11271 18.4286 5.11313 18.3919 5.11355 18.354C5.11644 18.0964 5.11922 17.8387 5.12194 17.581C5.12558 17.2374 5.12948 16.8939 5.13356 16.5504C5.13501 16.4244 5.13638 16.2983 5.13766 16.1723C5.13941 16.0012 5.14147 15.8302 5.14361 15.6591C5.14405 15.6087 5.1445 15.5583 5.14495 15.5063C5.14559 15.4609 5.14622 15.4155 5.14687 15.3688C5.14731 15.3294 5.14775 15.2899 5.14821 15.2493C5.15548 15.1598 5.15548 15.1598 5.2062 15.1101C5.29379 15.1051 5.38158 15.1037 5.46931 15.1039C5.51711 15.1038 5.5649 15.1036 5.61414 15.1035C5.76412 15.1101 5.76412 15.1101 6.06844 15.1598C6.03497 14.8973 6.00149 14.6347 5.967 14.3641C6.35498 14.2916 6.7412 14.2341 7.13356 14.1901C7.18246 14.1842 7.23137 14.1784 7.28175 14.1724C7.46885 14.1512 7.65613 14.1328 7.84363 14.1155C7.88839 14.1113 7.93315 14.1071 7.97927 14.1028C8.96495 14.0133 9.94606 13.998 10.935 14.0002ZM9.57128 16.3441C9.52441 16.3461 9.47755 16.3482 9.42926 16.3502C8.79627 16.3787 8.16882 16.4323 7.53932 16.5026C7.49933 17.7456 7.47615 18.9882 7.46297 20.2317C7.46089 20.4265 7.45871 20.6214 7.45653 20.8162C7.45135 21.2805 7.44634 21.7447 7.44143 22.2089C7.43704 22.6234 7.43247 23.0378 7.42771 23.4522C7.39513 26.2913 7.38015 29.13 7.38716 31.9693C7.43154 31.9664 7.47592 31.9635 7.52165 31.9604C9.14401 31.8542 9.14401 31.8542 9.92374 31.8549C10.0005 31.8546 10.0772 31.8544 10.154 31.8541C10.3525 31.8535 10.551 31.8536 10.7495 31.8541C10.8731 31.8543 10.9967 31.8544 11.1203 31.8545C12.3 31.8561 13.4679 31.8784 14.6401 32.0191C14.7036 32.026 14.767 32.0329 14.8324 32.04C17.0677 32.284 19.3312 32.7417 21.3565 33.7255C21.5198 33.8165 21.5198 33.8165 21.6394 33.8094C21.6754 33.1761 21.699 32.5443 21.7052 31.91C21.7062 31.8246 21.7072 31.7391 21.7082 31.6536C21.7109 31.4235 21.7134 31.1934 21.7158 30.9633C21.7178 30.767 21.72 30.5708 21.7222 30.3745C21.7274 29.9062 21.7324 29.438 21.7373 28.9698C21.7417 28.5513 21.7462 28.1328 21.751 27.7143C21.7639 26.5904 21.7753 25.4666 21.7838 24.3427C21.7883 23.7641 21.7941 23.1856 21.8013 22.6071C21.8065 22.1864 21.8103 21.7658 21.8132 21.3451C21.8149 21.097 21.8172 20.849 21.8211 20.6009C21.8247 20.3713 21.8266 20.1417 21.8271 19.912C21.8277 19.8283 21.8288 19.7446 21.8306 19.6609C21.8531 19.1424 21.8531 19.1424 21.619 18.694C21.5275 18.6093 21.5275 18.6093 21.4365 18.5416C21.3795 18.4925 21.3795 18.4925 21.3212 18.4424C18.1029 16.278 13.3496 16.1787 9.57128 16.3441Z" fill="#24375A"/>
<path d="M26 9C27.1968 9.01229 28.3935 9.02475 29.5903 9.0374C30.1462 9.04328 30.7021 9.0491 31.2581 9.05479C31.7437 9.05976 32.2294 9.06484 32.715 9.07004C32.9711 9.07278 33.2273 9.07547 33.4834 9.07803C34.0017 9.08324 34.5201 9.08911 35.0384 9.09674C35.2716 9.10013 35.5049 9.10302 35.7382 9.10499C35.9746 9.10699 36.2109 9.11004 36.4472 9.11381C36.5353 9.11503 36.6233 9.11589 36.7114 9.11634C37.4114 9.12025 37.8937 9.23808 38.4392 9.67846C38.5136 9.73257 38.5883 9.78619 38.6633 9.83935C38.8156 9.94782 38.9661 10.0582 39.1155 10.1704C39.4254 10.4007 39.7525 10.6046 40.0803 10.8097C40.2543 10.919 40.427 11.0301 40.5999 11.141C40.6689 11.1851 40.7379 11.2293 40.8068 11.2734C41.0179 11.4085 41.2289 11.5435 41.4399 11.6786C42.0807 12.0889 42.7215 12.499 43.3627 12.9086C43.5819 13.0487 43.8012 13.1888 44.0204 13.3289C44.1567 13.416 44.293 13.5031 44.4293 13.5901C44.8215 13.8407 45.2136 14.0915 45.6053 14.3428C45.7629 14.4439 45.9206 14.5449 46.0786 14.6455C46.2372 14.7465 46.3955 14.8478 46.5537 14.9493C46.5999 14.9785 46.646 15.0077 46.6935 15.0378C46.7346 15.0643 46.7756 15.0907 46.8179 15.118C46.8534 15.1406 46.8889 15.1633 46.9255 15.1866C46.9501 15.2065 46.9747 15.2264 47 15.247C47 15.2808 47 15.3146 47 15.3494C45.9605 15.324 45.9605 15.324 44.9 15.2982C44.9525 14.9397 44.9525 14.9397 45.005 14.7861C44.953 14.7692 44.901 14.7523 44.8475 14.7349C44.794 14.633 44.7417 14.5305 44.69 14.4277C44.5076 14.1926 44.3146 14.0199 44.0698 13.8484C44.0356 13.8243 44.0013 13.8001 43.9661 13.7752C43.5945 13.5181 43.2032 13.3021 42.8 13.0964C42.7664 13.0792 42.7328 13.062 42.6982 13.0442C42.4544 12.9204 42.208 12.8022 41.96 12.6867C41.9222 12.6691 41.8844 12.6514 41.8454 12.6332C40.5975 12.0557 39.2594 11.529 37.9175 11.2018C37.8655 11.4553 37.8655 11.4553 37.8125 11.7138C37.8856 11.7263 37.9587 11.7388 38.034 11.7517C38.3645 11.8163 38.6765 11.9209 38.9937 12.0307C39.0539 12.0513 39.114 12.0719 39.1759 12.0931C39.6708 12.2637 40.1617 12.4416 40.6475 12.6355C40.7123 12.6612 40.7123 12.6612 40.7784 12.6875C41.9142 13.141 43.1393 13.6694 44.06 14.4789C44.0942 14.5083 44.1285 14.5376 44.1638 14.5679C44.2536 14.6549 44.2536 14.6549 44.375 14.8373C44.3577 14.9894 44.3403 15.1415 44.3225 15.2982C43.8027 15.2982 43.283 15.2982 42.7475 15.2982C42.7226 15.4048 42.6977 15.5115 42.672 15.6214C42.5688 16.036 42.4369 16.4416 42.3012 16.8471C42.2813 16.9081 42.2614 16.969 42.2409 17.0318C42.2213 17.0894 42.2017 17.147 42.1815 17.2063C42.1641 17.258 42.1468 17.3096 42.1289 17.3628C42.0412 17.5511 41.9333 17.6694 41.7404 17.7566C41.7013 17.768 41.6623 17.7794 41.622 17.7912C41.5637 17.8089 41.5637 17.8089 41.5041 17.827C39.3563 18.3816 36.6007 17.4814 34.5575 16.8343C34.4947 16.8147 34.4319 16.795 34.3672 16.7748C29.9648 15.3868 29.9648 15.3868 28.94 13.9188C28.8182 13.5549 28.8943 13.2128 29.0138 12.8584C29.0266 12.8185 29.0395 12.7786 29.0527 12.7374C29.0932 12.6115 29.1347 12.4859 29.1762 12.3603C29.2176 12.2336 29.2589 12.1068 29.2998 11.9799C29.3253 11.9013 29.351 11.8228 29.377 11.7445C29.4268 11.5918 29.465 11.4654 29.465 11.3042C29.3495 11.2231 29.2364 11.1531 29.1139 11.0834C29.0356 11.0373 28.9574 10.991 28.8793 10.9446C28.8376 10.9198 28.7959 10.8951 28.753 10.8696C28.5373 10.7391 28.327 10.6008 28.1164 10.4625C27.784 10.2444 27.45 10.0289 27.1136 9.81667C27.0431 9.77214 26.9727 9.7276 26.9023 9.68305C26.7975 9.61681 26.6927 9.5507 26.5877 9.48497C26.4897 9.42364 26.392 9.36188 26.2943 9.30003C26.2375 9.26437 26.1808 9.22871 26.1223 9.19197C26.0819 9.16241 26.0416 9.13286 26 9.10241C26 9.06861 26 9.03482 26 9Z" fill="black"/>
<path d="M38.1022 11C38.4012 11.03 38.6586 11.0961 38.9401 11.2056C38.9801 11.2208 39.0202 11.236 39.0615 11.2517C39.1911 11.3012 39.3205 11.3514 39.4498 11.4018C39.4941 11.4189 39.5384 11.436 39.584 11.4536C40.5963 11.8447 41.599 12.2625 42.5528 12.7982C42.657 12.8562 42.7619 12.9125 42.867 12.9687C43.3553 13.233 43.7996 13.5312 44.2336 13.8872C44.2714 13.9181 44.3093 13.949 44.3483 13.9808C44.5933 14.1919 44.7967 14.4353 44.8978 14.7588C44.9315 14.7767 44.9653 14.7947 45 14.8132C44.9374 15.256 44.828 15.6661 44.6934 16.0896C44.0887 18.0558 43.7181 19.9787 43.4841 22.0319C43.4351 22.459 43.3749 22.8796 43.295 23.3012C43.2454 23.5686 43.2121 23.8377 43.1797 24.108C43.1674 24.2086 43.155 24.3091 43.1426 24.4097C43.137 24.4553 43.1314 24.5009 43.1256 24.5479C43.1061 24.6991 43.0832 24.8496 43.0584 25C42.3714 24.7994 41.6866 24.5991 41.0146 24.3463C41.2197 23.7903 41.4631 23.2551 41.7059 22.717C41.7866 22.5361 41.8652 22.3543 41.9438 22.1724C42.0674 21.8881 42.1965 21.6078 42.3315 21.3296C42.8452 20.263 43.2079 19.1905 43.5185 18.0399C43.5774 17.8229 43.6378 17.6064 43.6982 17.3899C43.7663 17.1455 43.8343 16.901 43.9009 16.6561C43.921 16.5827 43.941 16.5093 43.9611 16.436C43.9755 16.3831 43.9755 16.3831 43.9902 16.3291C44.0405 16.147 44.0939 15.9666 44.1521 15.7872C44.164 15.7505 44.1758 15.7139 44.1881 15.6761C44.221 15.5754 44.2547 15.4749 44.2884 15.3745C44.3451 15.1591 44.3829 14.9637 44.2827 14.7596C43.4906 13.8195 42.2808 13.2688 41.2094 12.7858C41.0853 12.7287 40.9639 12.666 40.8422 12.6036C39.9342 12.164 38.9458 11.8787 38 11.5447C38.0234 11.3558 38.0455 11.1812 38.1022 11Z" fill="#FBFC06"/>
<path d="M12.3042 29.0008C12.364 29.0004 12.364 29.0004 12.4249 29C12.6248 29.0006 12.8084 29.0084 13.0034 29.0332C13.3199 29.0717 13.6404 29.0746 13.963 29.0819C17.7522 29.1717 17.7522 29.1717 18.8404 29.748C18.9096 29.7904 18.9096 29.7904 19 29.8659C18.9841 29.8924 18.9682 29.919 18.9518 29.9463C18.7781 29.9872 18.6601 30 18.4699 30C18.4042 29.965 18.3401 29.9291 18.2771 29.8927C16.9492 29.4588 15.0916 29.4103 13.5994 29.3932C13.3411 29.3895 13.1048 29.372 12.8525 29.3414C12.6607 29.3218 12.4716 29.3214 12.2771 29.3227C12.2374 29.3228 12.1976 29.3229 12.1567 29.323C11.9072 29.3249 11.6718 29.336 11.4294 29.3713C11.3373 29.383 11.3373 29.383 11.1446 29.383C11.0969 29.3033 11.0492 29.2237 11 29.1416C11.4035 29.008 11.8457 29.0025 12.3042 29.0008Z" fill="black"/>
<path d="M12.3042 25.0015C12.364 25.0008 12.364 25.0008 12.4249 25C12.6248 25.0011 12.8084 25.0169 13.0034 25.0665C13.3199 25.1435 13.6404 25.1491 13.963 25.1638C17.7522 25.3434 17.7522 25.3434 18.8404 26.496C18.9096 26.5809 18.9096 26.5809 19 26.7317C18.9841 26.7849 18.9682 26.838 18.9518 26.8927C18.7781 26.9743 18.6601 27 18.4699 27C18.4042 26.9301 18.3401 26.8583 18.2771 26.7854C16.9492 25.9175 15.0916 25.8206 13.5994 25.7863C13.3411 25.779 13.1048 25.744 12.8525 25.6827C12.6607 25.6436 12.4716 25.6428 12.2771 25.6453C12.2374 25.6455 12.1976 25.6457 12.1567 25.6459C11.9072 25.6499 11.6718 25.672 11.4294 25.7426C11.3373 25.766 11.3373 25.766 11.1446 25.766C11.0969 25.6067 11.0492 25.4473 11 25.2832C11.4035 25.0161 11.8457 25.0051 12.3042 25.0015Z" fill="black"/>
<path d="M13.4672 23.0015C13.5345 23.0008 13.5345 23.0008 13.603 23C13.8279 23.0011 14.0345 23.0169 14.2538 23.0665C14.6099 23.1435 14.9705 23.1491 15.3333 23.1638C19.5962 23.3434 19.5962 23.3434 20.8204 24.496C20.8983 24.5809 20.8983 24.5809 21 24.7317C20.9821 24.7849 20.9642 24.838 20.9458 24.8927C20.7504 24.9743 20.6177 25 20.4036 25C20.3297 24.9301 20.2576 24.8583 20.1867 24.7854C18.6929 23.9175 16.6031 23.8206 14.9244 23.7863C14.6337 23.779 14.3679 23.744 14.0841 23.6827C13.8683 23.6436 13.6556 23.6428 13.4367 23.6453C13.392 23.6455 13.3474 23.6457 13.3013 23.6459C13.0206 23.6499 12.7558 23.672 12.4831 23.7426C12.3795 23.766 12.3795 23.766 12.1627 23.766C12.109 23.6067 12.0553 23.4473 12 23.2832C12.4539 23.0161 12.9514 23.0051 13.4672 23.0015Z" fill="black"/>
<path d="M12.3042 18.0023C12.364 18.0011 12.364 18.0011 12.4249 18C12.6248 18.0017 12.8084 18.0253 13.0034 18.0997C13.3199 18.2152 13.6404 18.2237 13.963 18.2458C17.7522 18.5152 17.7522 18.5152 18.8404 20.244C18.9096 20.3713 18.9096 20.3713 19 20.5976C18.9841 20.6773 18.9682 20.757 18.9518 20.839C18.7781 20.9615 18.6601 21 18.4699 21C18.4042 20.8951 18.3401 20.7874 18.2771 20.6781C16.9492 19.3763 15.0916 19.2309 13.5994 19.1795C13.3411 19.1685 13.1048 19.116 12.8525 19.0241C12.6607 18.9654 12.4716 18.9642 12.2771 18.968C12.2374 18.9683 12.1976 18.9686 12.1567 18.9689C11.9072 18.9748 11.6718 19.008 11.4294 19.1138C11.3373 19.149 11.3373 19.149 11.1446 19.149C11.0969 18.91 11.0492 18.671 11 18.4248C11.4035 18.0241 11.8457 18.0076 12.3042 18.0023Z" fill="black"/>
<path d="M41.7297 23C41.8315 23.2456 41.7598 23.3503 41.6486 23.5868C41.5951 23.5868 41.5416 23.5868 41.4865 23.5868C41.4865 23.6944 41.4865 23.802 41.4865 23.9129C41.4062 23.9451 41.4062 23.9451 41.3243 23.9781C41.2976 24.0426 41.2708 24.1072 41.2432 24.1737C41.377 24.1952 41.5108 24.2167 41.6486 24.2389C41.6486 24.2819 41.6486 24.325 41.6486 24.3693C41.7132 24.3764 41.7778 24.3836 41.8444 24.3909C42.3185 24.448 42.6787 24.5227 43.1081 24.6953C43.3288 24.7112 43.5345 24.7046 43.7568 24.6953C43.7568 24.7599 43.7568 24.8244 43.7568 24.8909C43.837 24.9124 43.9173 24.934 44 24.9561C43.7413 25.0602 43.5057 24.955 43.2424 24.8897C43.1836 24.8754 43.1248 24.8611 43.0643 24.8465C42.9399 24.8161 42.8156 24.7856 42.6913 24.7548C42.501 24.7078 42.3103 24.6617 42.1196 24.6157C41.9989 24.5862 41.8783 24.5566 41.7576 24.527C41.7004 24.5132 41.6432 24.4994 41.5843 24.4852C41.1808 24.3843 41.1808 24.3843 41 24.2389C41.2408 23.8301 41.4816 23.4212 41.7297 23Z" fill="#DAE33B"/>
<path d="M39.037 11C39.0493 11 39.0615 11 39.0741 11C39.0741 11.1125 39.0741 11.225 39.0741 11.3409C39.1069 11.3533 39.1069 11.3533 39.1405 11.366C39.2977 11.4274 39.4453 11.4912 39.5926 11.6137C39.5926 11.6587 39.5926 11.7037 39.5926 11.75C39.6522 11.7437 39.6522 11.7437 39.713 11.7373C39.8559 11.7504 39.8996 11.7771 40 11.9546C39.8629 12.0387 39.8184 11.9955 39.6836 11.9101C39.6438 11.8853 39.6041 11.8605 39.5632 11.8349C39.5217 11.8083 39.4802 11.7817 39.4375 11.7543C39.3956 11.728 39.3537 11.7017 39.3105 11.6745C39.2069 11.6093 39.1034 11.5436 39 11.4773C39.0122 11.3198 39.0244 11.1623 39.037 11Z" fill="#E2E227"/>
<path d="M40 12.0184C40.5483 11.9299 40.8965 12.1726 41.3633 12.4857C41.5782 12.6185 41.7652 12.6969 42 12.7546C42 12.8356 42 12.9166 42 13C41.5362 12.9431 41.2016 12.7704 40.7969 12.5078C40.5398 12.3494 40.2751 12.2424 40 12.1411C40 12.1006 40 12.0601 40 12.0184Z" fill="#E1E729"/>
<path d="M43.4167 13C43.4717 13 43.5267 13 43.5833 13C43.5833 13.1467 43.5833 13.2933 43.5833 13.4444C43.6658 13.4811 43.7483 13.5178 43.8333 13.5556C43.8333 13.6289 43.8333 13.7022 43.8333 13.7778C43.8883 13.7778 43.9433 13.7778 44 13.7778C43.9725 13.8511 43.945 13.9244 43.9167 14C43.6142 13.78 43.3117 13.56 43 13.3333C43.11 13.2967 43.22 13.26 43.3333 13.2222C43.3608 13.1489 43.3883 13.0756 43.4167 13Z" fill="#E5E922"/>
<path d="M41.7143 22C41.8086 22.03 41.9029 22.06 42 22.0909C41.7643 22.3909 41.5286 22.6909 41.2857 23C41 22.7273 41 22.7273 41 22.5455C41.1414 22.5455 41.2829 22.5455 41.4286 22.5455C41.4286 22.4255 41.4286 22.3055 41.4286 22.1818C41.5229 22.1818 41.6171 22.1818 41.7143 22.1818C41.7143 22.1218 41.7143 22.0618 41.7143 22Z" fill="#324730"/>
<path d="M43.7 24C43.7 24.2055 43.7 24.411 43.7 24.6228C43.799 24.6913 43.898 24.7598 44 24.8304C43.8 25.038 43.8 25.038 43.6055 24.922C43.5335 24.8618 43.4616 24.8016 43.3875 24.7396C43.3151 24.6799 43.2426 24.6202 43.168 24.5587C43.0848 24.4877 43.0848 24.4877 43 24.4152C43 24.3467 43 24.2782 43 24.2076C43.475 24 43.475 24 43.7 24Z" fill="#DCE831"/>
</svg>
